<?xml version="1.0" ?><!DOCTYPE svg  PUBLIC '-//W3C//DTD SVG 1.1//EN'  'http://www.w3.org/Graphics/SVG/1.1/DTD/svg11.dtd'><svg height="512px" style="enable-background:new 0 0 512 512;" version="1.1" viewBox="0 0 512 512" width="512px" xml:space="preserve" xmlns="http://www.w3.org/2000/svg" xmlns:xlink="http://www.w3.org/1999/xlink"><g id="comp_x5F_306-slack"><g><g><g><path d="M117.267,314.044c0,18.738-15.308,34.047-34.046,34.047c-18.736,0-34.044-15.309-34.044-34.047      c0-18.736,15.308-34.044,34.044-34.044h34.046V314.044z" style="fill:#E01E5A;"/><g><path d="M83.221,358.091c-24.286,0-44.044-19.76-44.044-44.047c0-24.286,19.758-44.044,44.044-44.044h34.046       c5.523,0,10,4.478,10,10v34.044C127.267,338.331,107.508,358.091,83.221,358.091z M83.221,290       c-13.258,0-24.044,10.786-24.044,24.044c0,13.26,10.786,24.047,24.044,24.047c13.259,0,24.046-10.787,24.046-24.047V290H83.221       z"/></g></g><g><path d="M148.561,314.043c0-25.436,20.783-46.217,46.22-46.217c25.437,0,46.22,20.781,46.22,46.217      V429.78c0,25.436-20.783,46.219-46.22,46.219c-25.438,0-46.22-20.783-46.22-46.219V314.043z" style="fill:#E01E5A;"/><g><path d="M194.781,485.999c-31,0-56.22-25.22-56.22-56.219V314.043c0-30.998,25.22-56.217,56.22-56.217       c31,0,56.22,25.219,56.22,56.217V429.78C251,460.779,225.78,485.999,194.781,485.999z M194.781,277.826       c-19.972,0-36.22,16.247-36.22,36.217V429.78c0,19.971,16.249,36.219,36.22,36.219S231,449.751,231,429.78V314.043       C231,294.073,214.752,277.826,194.781,277.826z"/></g></g><g><path d="M198.956,110c-19.934,0-36.22-16.286-36.22-36.22s16.286-36.22,36.22-36.22      s36.22,16.286,36.22,36.22V110H198.956L198.956,110z" style="fill:#36C5F0;"/><g><path d="M235.176,120h-36.22c-25.486,0-46.22-20.734-46.22-46.22s20.734-46.22,46.22-46.22s46.22,20.734,46.22,46.22V110       C245.176,115.523,240.699,120,235.176,120z M198.956,47.561c-14.458,0-26.22,11.762-26.22,26.22S184.499,100,198.956,100h26.22       V73.78C225.176,59.323,213.414,47.561,198.956,47.561z"/></g></g><g><path d="M194.781,140c25.437,0,46.22,20.781,46.22,46.22c0,25.438-20.783,46.219-46.22,46.219H79.045      c-25.437,0-46.219-20.781-46.219-46.219c0-25.438,20.782-46.22,46.219-46.22H194.781L194.781,140z" style="fill:#36C5F0;"/><g><path d="M194.781,242.438H79.045c-30.999,0-56.219-25.22-56.219-56.219c0-31,25.22-56.22,56.219-56.22h115.735       c31,0,56.22,25.22,56.22,56.22C251,217.219,225.78,242.438,194.781,242.438z M79.045,150c-19.971,0-36.219,16.248-36.219,36.22       c0,19.971,16.248,36.219,36.219,36.219h115.735c19.972,0,36.22-16.248,36.22-36.219c0-19.972-16.248-36.22-36.22-36.22H79.045z       "/></g></g><g><path d="M394.563,197.956c0-19.935,16.283-36.22,36.219-36.22c19.934,0,36.217,16.285,36.217,36.22      c0,19.934-16.283,36.219-36.217,36.219h-36.219V197.956L394.563,197.956z" style="fill:#2EB67D;"/><g><path d="M430.781,244.175h-36.219c-5.522,0-10-4.477-10-10v-36.219c0-25.486,20.733-46.22,46.219-46.22       c25.484,0,46.217,20.734,46.217,46.22C476.998,223.441,456.266,244.175,430.781,244.175z M404.563,224.175h26.219       c14.456,0,26.217-11.762,26.217-26.219c0-14.458-11.761-26.22-26.217-26.22c-14.457,0-26.219,11.762-26.219,26.22V224.175z"/></g></g><g><path d="M363.439,197.956c0,25.438-20.781,46.219-46.219,46.219S271,223.394,271,197.956V82.221      c0-25.438,20.783-46.22,46.221-46.22s46.219,20.782,46.219,46.22V197.956L363.439,197.956z" style="fill:#2EB67D;"/><g><path d="M317.221,254.175c-31,0-56.221-25.22-56.221-56.219V82.221c0-31,25.221-56.22,56.221-56.22       c30.999,0,56.219,25.22,56.219,56.22v115.735C373.439,228.955,348.22,254.175,317.221,254.175z M317.221,46.001       c-19.973,0-36.221,16.248-36.221,36.22v115.735c0,19.971,16.248,36.219,36.221,36.219c19.971,0,36.219-16.248,36.219-36.219       V82.221C353.439,62.249,337.191,46.001,317.221,46.001z"/></g></g><g><path d="M317.221,397.562c19.934,0,36.219,16.285,36.219,36.22c0,19.933-16.285,36.219-36.219,36.219      S281,453.714,281,433.781v-36.22H317.221z" style="fill:#ECB22E;"/><g><path d="M317.221,480C291.734,480,271,459.267,271,433.781v-36.22c0-5.522,4.478-10,10-10h36.221       c25.485,0,46.219,20.734,46.219,46.22S342.706,480,317.221,480z M291,407.562v26.22C291,448.238,302.763,460,317.221,460       c14.457,0,26.219-11.762,26.219-26.219c0-14.458-11.762-26.22-26.219-26.22H291z"/></g></g><g><path d="M317.221,366.44c-25.438,0-46.221-20.782-46.221-46.222c0-25.436,20.783-46.218,46.221-46.218      h115.736c25.436,0,46.217,20.782,46.217,46.218c0,25.439-20.781,46.222-46.217,46.222H317.221z" style="fill:#ECB22E;"/><g><path d="M432.957,376.44H317.221c-31,0-56.221-25.221-56.221-56.222c0-30.999,25.221-56.218,56.221-56.218h115.736       c30.998,0,56.217,25.219,56.217,56.218C489.174,351.22,463.955,376.44,432.957,376.44z M317.221,284.001       c-19.972,0-36.221,16.247-36.221,36.218c0,19.973,16.249,36.222,36.221,36.222h115.736c19.97,0,36.217-16.249,36.217-36.222       c0-19.971-16.247-36.218-36.217-36.218H317.221z"/></g></g></g></g></g><g id="Layer_1"/></svg>